<svg xmlns="http://www.w3.org/2000/svg" version="1" viewBox="0 0 1024 1024">
  <path d="M428 110.5c-.7.8-1.8 1.5-2.5 1.5-1.5 0-13.5 12-13.5 13.5 0 .6-1.3 2.5-3 4.3-1.6 1.8-3 3.9-3 4.7 0 .8-.4 1.6-.9 1.9-.5.3-1.8 2.4-2.9 4.5-1.2 2.2-2.5 4.8-3.1 5.8-2.8 4.9-7.1 14.7-7.1 15.9 0 .8-.4 1.4-1 1.4-.5 0-1 1.1-1 2.4 0 1.3-.7 2.9-1.5 3.6-.8.7-1.5 2.2-1.5 3.4 0 1.1-.7 3-1.5 4-.8 1.1-1.5 2.7-1.5 3.6 0 2.6-6.3 8-9.3 8-2.7 0-3.3.2-9.5 3.3-1.9.9-4.2 1.7-5.2 1.7-.9 0-2.3.7-3 1.5-.7.8-2.1 1.5-3.2 1.5-1 0-2.1.6-2.4 1.4-.3.8-1.6 1.7-2.9 2-3 .8-16.5 14.3-16.5 16.6 0 1.1-.4 2.2-1 2.5-.5.3-1 2.6-1 5s.5 4.7 1 5c.6.3 1 1.4 1 2.3 0 2.1 10.8 12.8 16.6 16.4 2.2 1.4 6.2 3.6 9 4.7 2.7 1.2 5.8 2.6 6.9 3.1 1.1.5 2.9 1 4 1.2 2.5.4 3.1 4 1 5.8-.8.7-1.5 2.7-1.5 4.5 0 1.9-.5 3.5-1.1 3.7-.5.2-1.3 2.2-1.6 4.6-.3 2.3-1 4.2-1.4 4.2-.5 0-.9 1.5-.9 3.3 0 1.8-.7 4.2-1.5 5.3-.8 1-1.5 3.1-1.5 4.5s-.7 3.4-1.5 4.5c-.8 1-1.5 3-1.5 4.4 0 1.4-.7 3.4-1.5 4.4-.8 1.1-1.5 3.2-1.5 4.7s-.4 3.1-1 3.4c-.5.3-1 1.9-1 3.5s-.7 3.5-1.5 4.4c-.8.8-1.5 2.8-1.5 4.4 0 1.6-.7 3.5-1.5 4.2-.8.7-1.5 2.6-1.5 4.2s-.7 3.6-1.5 4.4c-.8.9-1.5 2.8-1.5 4.4 0 1.6-.4 3.2-1 3.5-.5.3-1 2.1-1 3.9 0 1.9-.7 3.9-1.5 4.6-.8.7-1.5 2.8-1.5 4.6 0 1.9-.4 3.4-1 3.4-.5 0-1.2 1.6-1.6 3.7-.4 2-1.3 4.8-2 6.2-.8 1.4-1.4 3.6-1.4 4.8 0 1.3-.4 2.3-1 2.3-.5 0-1 1.5-1 3.4 0 1.8-.7 3.9-1.5 4.6-.8.7-1.5 2.4-1.5 3.9-.1 1.4-.7 3.7-1.5 5.1-.8 1.4-1.4 3.7-1.5 5.2 0 1.5-.4 3-1 3.3-.5.3-1 1.9-1 3.4s-.7 3.6-1.5 4.7c-2.2 2.9-1.8 4.8 1.7 8.8 2.7 3 3.8 3.6 7.3 3.6 4.4 0 8.5-3 8.5-6.3 0-.9.5-1.9 1-2.2.6-.3 1-2.2 1-4.1 0-2.2.6-3.7 1.5-4 .9-.4 1.5-1.9 1.5-3.9 0-1.8.7-3.8 1.5-4.5.8-.7 1.5-2.7 1.5-4.4 0-1.7.7-4 1.5-5 .8-1.1 1.5-3.2 1.5-4.7s.5-3.1 1-3.4c.6-.3 1-1.8 1-3.3 0-1.5.7-3.6 1.5-4.6.8-1.1 1.5-2.9 1.5-4.1 0-1.2.7-3 1.5-4.1.8-1 1.5-3.3 1.5-4.9 0-1.7.7-3.9 1.5-4.9.8-1.1 1.5-3.2 1.5-4.7s.5-3.1 1-3.4c.6-.3 1-1.6 1-2.9 0-1.2.7-3.1 1.5-4.2.8-1 1.5-3.3 1.5-5 0-1.7.7-3.7 1.5-4.4.8-.7 1.5-2.7 1.5-4.5 0-1.8.7-3.8 1.5-4.5.8-.7 1.5-2.8 1.5-4.6 0-1.9.5-3.4 1-3.4.6 0 1-1.5 1-3.4 0-1.8.7-3.9 1.5-4.6.8-.7 1.5-2.8 1.5-4.6 0-4 1.8-4.5 4-1.2 1.3 2.2 1.8 5.1 3.8 22.8.4 3.8 1.3 7.5 2 8.2.6.6 1.2 3 1.2 5.2.1 2.3.7 5.2 1.5 6.6.8 1.4 1.4 3.9 1.5 5.7 0 1.7.5 3.5 1 3.8.6.3 1 1.4 1 2.3 0 .9.7 3 1.5 4.6.8 1.5 1.5 3.4 1.5 4.1 0 .7.7 1.8 1.5 2.5s1.5 2 1.5 3 .7 2.3 1.5 3c.8.7 1.5 2.1 1.5 3 0 1 .4 2 .9 2.2.5.1 2.1 2.1 3.5 4.3 3.1 4.6 12.5 14.5 13.8 14.5.5 0 2.4 1.1 4.1 2.3 4.5 3.4 11.4 6.7 13.7 6.7 1.1 0 2 .4 2 1 0 .5 1.9 1 4.3 1s5.2.7 6.3 1.5c2.8 2.1 31.9 2.1 36 0 1.6-.8 4.6-1.5 6.6-1.5s4-.5 4.3-1c.3-.6 1.9-1 3.4-1 1.6 0 3.4-.7 4.1-1.5.7-.8 2-1.5 3-1.5s2.3-.7 3-1.5c.7-.8 1.9-1.5 2.7-1.5 1.6 0 19.3-16.8 19.3-18.3 0-.6.6-1.8 1.4-2.6 1.9-2.2 6.6-11.1 6.6-12.6 0-.7.7-1.8 1.5-2.5s1.5-2.5 1.5-4 .7-3.3 1.5-4c.8-.7 1.5-2.5 1.5-4.1 0-1.5.4-3 .9-3.4.6-.3 1.3-2.6 1.7-5 .3-2.5 1-4.8 1.5-5.1.5-.3.9-2.2.9-4.2.1-2 .7-4.8 1.5-6.2.8-1.4 1.5-4.1 1.5-6 0-1.9.7-4.6 1.5-6 .8-1.4 1.4-3.5 1.5-4.8 0-1.2.4-2.2.9-2.2 1.2 0 2.1 2.6 2.1 6.1 0 1.6.5 2.9 1 2.9.6 0 1 1.3 1 2.8 0 1.6.7 3.7 1.5 4.8.8 1 1.5 3.1 1.5 4.5 0 1.5.7 3.2 1.5 3.9.8.7 1.5 2.7 1.5 4.6 0 1.8.5 3.6 1 3.9.6.3 1 1.4 1 2.3 0 .9.7 3 1.5 4.6.8 1.5 1.5 4.1 1.5 5.6s.7 3.3 1.5 4c.8.7 1.5 2.6 1.5 4.2s.7 3.6 1.5 4.4c.8.9 1.5 2.8 1.5 4.4 0 1.6.5 3.2 1 3.5.6.3 1 1.8 1 3.3 0 1.5.6 3.6 1.4 4.7.7 1.1 1.6 3.3 1.8 5 .7 3.6 2.5 9 4.4 12.7.8 1.4 1.4 3.8 1.4 5.2 0 1.4.5 2.6 1 2.6.6 0 1 1.5 1 3.4 0 2.3 1.1 4.8 3.3 7.8 2.8 3.7 3.9 4.3 7.2 4.5 2.9.2 4.7-.3 6.5-1.8 2.3-1.9 2.5-2.7 2.3-9.2-.1-4-.7-7.3-1.3-7.5-.5-.2-1-1.3-1-2.5s-.7-3.5-1.5-5.1c-.8-1.5-1.5-4.1-1.5-5.6s-.7-3.3-1.5-4c-.8-.7-1.5-2.5-1.5-4s-.7-3.3-1.5-4c-.8-.7-1.5-2.7-1.5-4.6 0-1.8-.4-3.6-1-3.9-.5-.3-1-1.9-1-3.4 0-1.6-.7-3.4-1.5-4.1-.8-.7-1.5-2.7-1.5-4.4 0-1.7-.7-4-1.5-5-.8-1.1-1.5-3.1-1.5-4.5s-.7-3.5-1.5-4.5c-.8-1.1-1.5-3-1.5-4.2 0-1.3-.4-2.6-1-2.9-.5-.3-1-1.8-1-3.3-.1-1.5-.7-3.8-1.5-5.2-.8-1.4-1.5-3.6-1.5-5s-.7-3.4-1.5-4.4c-.8-1.1-1.5-3.2-1.5-4.7 0-1.4-.7-3.2-1.5-3.9-.8-.7-1.5-2.7-1.5-4.6 0-1.8-.4-3.6-1-3.9-.5-.3-1-2.2-1-4.1 0-2.2-.6-3.7-1.5-4-.9-.4-1.5-1.9-1.5-3.9 0-1.8-.7-3.8-1.5-4.5-.8-.7-1.5-2.7-1.5-4.5 0-2-.6-3.5-1.5-3.9-.9-.3-1.5-1.8-1.5-4 0-1.9-.4-3.8-1-4.1-.5-.3-1-1.9-1-3.5s-.7-3.5-1.5-4.4c-.8-.8-1.5-2.1-1.5-2.9 0-2 4.3-5.7 6.7-5.7 1.1 0 4.1-1.1 6.7-2.5 2.6-1.4 5.3-2.5 6-2.5.8 0 1.9-.7 2.6-1.5.7-.8 2.1-1.5 3.1-1.5 1.1 0 1.9-.4 1.9-.9 0-.4 1.9-2.1 4.2-3.7 2.3-1.6 6.1-5.5 8.5-8.8 3.9-5.3 4.3-6.4 4.3-11.6 0-3.9-.5-6.2-1.5-7-.8-.7-1.5-1.7-1.5-2.3 0-1.6-7-9.7-8.4-9.7-.7 0-2.3-1.1-3.6-2.5-1.3-1.4-3.1-2.5-4.1-2.5-.9 0-2.2-.7-2.9-1.5-.7-.8-1.8-1.5-2.5-1.5s-1.8-.7-2.5-1.5-2.3-1.5-3.6-1.5c-1.3 0-2.4-.5-2.4-1 0-.6-.8-1-1.7-1-1 0-3.1-.7-4.7-1.5-1.5-.8-3.7-1.5-4.8-1.5-1.1 0-2.8-.5-3.9-1-2.5-1.4-6.9-8.4-6.9-11 0-1.1-.4-2-1-2-.5 0-1-.7-1-1.6 0-1.6-2.3-7.6-4.1-10.4-.5-.8-1.2-2.2-1.5-3-.3-.8-1-2.2-1.5-3-.5-.8-1.2-2.2-1.5-3-3-7.2-3.9-9-4.6-9-.4 0-.8-.8-.8-1.9 0-1-.7-2.4-1.5-3.1-.8-.7-1.5-1.8-1.5-2.4 0-.6-1.2-2.7-2.8-4.6-1.5-1.9-3.4-4.7-4.1-6.2-1.8-3.6-12.3-13.6-16.7-16-4.4-2.3-17.5-2.6-19.8-.3-.8.8-2.1 1.5-2.9 1.5-.7 0-2.7 1.3-4.3 3-1.6 1.6-3.7 3-4.6 3-1 0-1.8.4-1.8 1s-3 1-7 1c-3.8 0-7-.3-7-.8 0-.4-1.7-1.6-3.7-2.7-2.1-1.1-4.2-2.5-4.6-3.2-.4-.7-1.6-1.3-2.6-1.3s-2.4-.7-3.1-1.5c-.9-1.1-3.4-1.5-9.5-1.5s-8.6.4-9.5 1.5zm72 105c5.9.3 11.9 1.2 13.7 2 1.7.8 4.9 1.5 7.1 1.5 2.2 0 5.3.7 6.8 1.5 1.6.8 4.3 1.5 6.1 1.5 1.7 0 3.5.4 3.8 1 .3.5 1.9 1 3.4 1 1.6 0 3.4.7 4.1 1.5.7.8 2.1 1.5 3.1 1.5 3 0 4 3.4 3.7 12.8l-.3 8.7-2.8.3c-2.2.3-3-.1-3.4-1.7-.3-1.1-2.1-2.9-4-4.1-3.2-1.9-5-2-28.6-2-20.6.1-25.6.3-27.1 1.5-1.1.8-3.4 1.5-5.2 1.5-1.8 0-3.4.6-3.6 1.2-.3.9-3.3 1.3-10.1 1.3-6.3 0-10-.4-10.8-1.3-.7-.6-2.4-1.2-3.8-1.2-1.5 0-3.9-.7-5.5-1.5-4.1-2.2-48.2-2.1-51 0-1.1.8-2.8 1.5-3.8 1.5-1.4 0-1.8.8-1.8 3.3 0 4.5-.9 5.1-3.7 2.5-2.1-1.9-2.3-3-2.3-10.9 0-10.2.5-11.9 3.4-11.9 1.1 0 3-.7 4-1.5 1.1-.8 3-1.5 4.2-1.5 1.3 0 2.6-.5 2.9-1 .3-.6 2.3-1 4.4-1 2 0 4.6-.7 5.7-1.5 1-.8 4.2-1.5 6.9-1.5 2.8 0 6.1-.7 7.5-1.5 1.7-1 5.7-1.4 12-1.5 5.2 0 10.2-.5 11-1 1.5-1 32-.7 54 .5zm21 29.5c1 .6 2.9 1 4.3 1 1.3 0 3.4 1.2 4.8 2.6 2.3 2.4 2.4 3.2 2.3 14.3-.2 13.1-1.3 16.5-6.8 21.3-5.2 4.6-21.9 5-31.2.8-4.5-2-11.4-9.3-11.4-12 0-.9-.7-2.5-1.5-3.6-1-1.3-1.4-4.5-1.5-10.4 0-9.8.9-11.2 8.3-13.1 10.2-2.7 28.4-3.2 32.7-.9zm-77.8.6c8.1 2.1 11.8 5.8 11.8 12 0 2.4-.4 4.6-1 4.9-.5.3-1 2.1-1 3.9 0 1.9-.7 3.9-1.5 4.6-.8.7-1.5 2-1.5 2.9 0 .9-.5 2.2-1.1 2.8-.6.6-1.7 2.2-2.3 3.5-.6 1.2-2.5 2.9-4.1 3.7-1.7.8-3.1 1.8-3.3 2.3-.2.4-1.8.8-3.5.8-1.8 0-5.2.5-7.7 1.1-3.2.7-6.4.7-11.5-.3-11.2-2-14.4-7.2-15.2-25.3-.4-8.9-.3-9.1 2.7-12.8 2.1-2.5 4-3.7 5.8-3.8 1.5 0 3.6-.4 4.7-.9 3.5-1.5 21.9-1.1 28.7.6zm-49.8 10.9c1.1.9 2 3.1 2.3 6 .3 2.5 1 4.8 1.4 5.1.5.3.9 2.7.9 5.3 0 3.1.5 5.3 1.5 6.1.8.7 1.5 2.1 1.5 3 0 3.1 6.7 7.8 11.9 8.4 2.5.3 6.5.8 8.9 1.2 2.8.4 4.2.2 4.2-.5s2.3-1.1 6-1.1c6.8 0 12-2.1 16-6.5 5.7-6.1 7.7-9.5 11-18.3 3.5-9 9.1-10.9 13.5-4.5 1.4 2.1 2.5 4.6 2.5 5.5 0 1 .5 1.8 1 1.8.6 0 1 1.1 1 2.5s.7 2.8 1.5 3.1c.8.4 1.5 1.4 1.5 2.3 0 2.2 7.6 9.6 12.5 12.1 3.4 1.7 5.9 2 18.4 2h14.5l4.8-4.7c3.8-3.7 4.8-5.4 4.8-8 0-1.7.4-3.4.9-3.7.4-.3 1.1-2.9 1.4-5.7.7-5.4 2-7.9 4.3-7.9.9 0 1.4 1.2 1.4 3.4 0 1.8.7 3.9 1.5 4.6.8.7 1.5 2.7 1.5 4.5 0 2 .6 3.5 1.5 3.9.9.3 1.5 1.8 1.5 4 0 1.9.5 3.8 1 4.1.6.3 1 1.9 1 3.6 0 1.6.6 3.8 1.2 4.9 1 1.6 1 2.4 0 4-.6 1.1-1.2 2.6-1.2 3.3 0 5.6-12.8 22.7-17 22.7-1.1 0-2 .5-2 1.1 0 2-27.3-.5-31.7-2.9-1.2-.7-4.6-1.2-7.5-1.2-3.1-.1-6.1-.7-7.2-1.5-2.9-2.2-43.8-2.2-48 0-1.5.8-4.7 1.5-7 1.5-2.2.1-5.2.7-6.6 1.5-1.6.9-5.5 1.4-11 1.5-11.7 0-13.4-1.2-19.9-13.4-1.7-3.2-3.1-6.9-3.1-8.1 0-1.2-.7-2.8-1.5-3.5-.8-.7-1.5-2.7-1.5-4.4 0-1.7-.7-4-1.5-5-2-2.6-2-11 0-12.6.8-.7 1.5-2.7 1.5-4.4 0-1.7.7-4 1.5-5 .9-1.1 1.5-4.1 1.5-6.8 0-5.1.4-5.5 3.4-3.3zm72.1 76.9c7.2.1 15.7-.1 19-.3 9.4-.5 23.7 1 26.2 2.8 4.1 3 1.9 11.1-3.1 11.1-.7 0-1.9.7-2.6 1.5-.7.8-2.5 1.5-4 1.5s-3.3.7-4 1.5c-.7.8-2.9 1.5-4.9 1.5-2 0-4.3.6-4.9 1.2-1.4 1.4-14.8 3-24.2 3-7.3 0-17-1.5-19.7-3-1.2-.7-3.1-1.2-4.3-1.2-1.1 0-2.3-.7-2.6-1.5-.4-.8-1.7-1.5-3-1.5s-2.4-.4-2.4-.9-1-1.3-2.2-1.7c-1.2-.4-3.8-2.1-5.6-3.9l-3.5-3.2 1.9-3.2c1.4-2.4 2.5-3.1 4.9-3.1 1.6 0 3.7-.5 4.5-1.1 1-.7 5-.8 11.5-.3 5.5.4 15.9.8 23 .8zM753.2 131.7c-.5 1.6-28 75.4-61.1 164.1-33 88.7-60.1 161.5-60.1 161.7 0 .3 8.4.4 18.6.3l18.6-.3 60.4-162c33.2-89.1 60.7-163 61-164.3l.6-2.2h-37l-1 2.7zM145.3 231.3L38 278.5v22l107.5 53.8c59.1 29.5 107.7 53.7 108 53.7.3 0 .4-7.5.3-16.7l-.3-16.7-86.5-41.3c-47.5-22.8-86.8-41.7-87.3-42.2-.4-.4 38.6-17.2 86.8-37.2l87.5-36.4v-16.7c0-9.3-.3-16.8-.7-16.7-.5 0-49.1 21.3-108 47.2zM816 200.8v16.7l86.8 36.4c47.7 20 87 36.6 87.5 37 .4.4-38.6 19.4-86.5 42.2l-87.3 41.4-.3 16.8c-.1 9.2 0 16.7.3 16.7s47.1-23.3 104-51.8l103.5-51.7-.2-14.9-.3-14.8-103.4-45.4c-56.9-25-103.6-45.4-103.8-45.4-.1 0-.3 7.5-.3 16.8z"/>
</svg>
